# xmcd CD database file
#
# Track frame offsets:
#	150
#	26139
#	51980
#	75299
#	103705
#	117726
#	143219
#	168409
#	191256
#	218800
#	237696
#	263451
#	284206
#	303929
#	325973
#
# Disc length: 4644 seconds
#
# Revision: 0
# Processed by: cddbd v1.4PL0 Copyright (c) Steve Scherf et al.
# Submitted via: CDex 1.50
#
DISCID=de12220f
DTITLE=Don Laka - The Best Of Kwai Jazz
DYEAR=2003
DGENRE=Jazz
TTITLE0=Mamelodi
TTITLE1=Still Waters
TTITLE2=Moondance
TTITLE3=Supa Nova
TTITLE4=The Hymn
TTITLE5=Kwai Jazz
TTITLE6=Tlang Sekolong
TTITLE7=Tshela
TTITLE8=A New Beginning
TTITLE9=Destiny
TTITLE10=Time and Space
TTITLE11=Mzala
TTITLE12=Morning Prayer
TTITLE13=African Revival
TTITLE14=Move On
EXTD=YEAR: 2003
EXTT0=
EXTT1=
EXTT2=
EXTT3=
EXTT4=
EXTT5=
EXTT6=
EXTT7=
EXTT8=
EXTT9=
EXTT10=
EXTT11=
EXTT12=
EXTT13=
EXTT14=
PLAYORDER=
